<?xml version="1.0" encoding="UTF-8"?>
<!DOCTYPE svg PUBLIC "-//W3C//DTD SVG 1.1//EN" "http://www.w3.org/Graphics/SVG/1.1/DTD/svg11.dtd">
<svg xmlns="http://www.w3.org/2000/svg" version="1.1" width="1120px" height="1120px" style="shape-rendering:geometricPrecision; text-rendering:geometricPrecision; image-rendering:optimizeQuality; fill-rule:evenodd; clip-rule:evenodd" xmlns:xlink="http://www.w3.org/1999/xlink">
<g><path style="opacity:0.908" fill="#242424" d="M 378.5,155.5 C 379.5,155.5 380.5,155.5 381.5,155.5C 378.328,165.176 374.828,174.842 371,184.5C 367.102,197.89 364.935,211.557 364.5,225.5C 364.412,231.93 365.079,238.264 366.5,244.5C 367.873,244.657 369.207,244.49 370.5,244C 372.549,241.407 374.715,238.907 377,236.5C 384.366,223.147 391.7,209.813 399,196.5C 400,195.167 401,195.167 402,196.5C 398.168,220.998 390.501,244.332 379,266.5C 368.373,295.265 373.873,320.432 395.5,342C 406.748,348.862 418.914,353.362 432,355.5C 433.397,354.774 434.231,353.607 434.5,352C 431.857,339.288 430.191,326.455 429.5,313.5C 429.584,292.371 434.75,272.704 445,254.5C 446.264,252.393 448.097,251.393 450.5,251.5C 438.47,290.727 442.636,328.06 463,363.5C 470.703,372.871 479.37,381.204 489,388.5C 490.528,383.643 491.361,378.643 491.5,373.5C 490.647,358.3 488.48,343.3 485,328.5C 483.539,305.56 489.706,285.06 503.5,267C 504.448,266.517 505.448,266.351 506.5,266.5C 496.345,297.473 497.511,328.14 510,358.5C 513.865,375.689 516.865,393.022 519,410.5C 520.471,414.581 522.138,418.581 524,422.5C 525.5,419.5 527,416.5 528.5,413.5C 529.325,412.614 530.325,412.281 531.5,412.5C 531.337,421.548 533.337,430.048 537.5,438C 551.833,438.667 566.167,438.667 580.5,438C 584.927,429.798 587.26,420.964 587.5,411.5C 588.748,412.04 589.915,412.707 591,413.5C 592.34,416.202 593.673,418.869 595,421.5C 597.562,416.376 599.562,411.043 601,405.5C 602.08,381.431 606.747,358.098 615,335.5C 618.181,316.814 618.181,298.147 615,279.5C 612.922,274.925 611.089,270.258 609.5,265.5C 610.93,265.421 612.264,265.754 613.5,266.5C 628.791,286.16 634.958,308.493 632,333.5C 628.216,350.651 626.883,367.984 628,385.5C 628.419,386.672 629.085,387.672 630,388.5C 655.734,369.051 670.068,343.051 673,310.5C 673.963,295.425 673.296,280.425 671,265.5C 669.441,261.381 667.607,257.381 665.5,253.5C 665.833,252.5 666.5,251.833 667.5,251.5C 670.55,254.567 673.384,257.901 676,261.5C 684.376,278.447 688.543,296.447 688.5,315.5C 687.312,328.586 685.812,341.586 684,354.5C 716.289,353.557 735.955,337.224 743,305.5C 745.361,293.338 744.695,281.338 741,269.5C 729.251,247.092 720.751,223.425 715.5,198.5C 717.39,198.297 718.89,198.963 720,200.5C 728.019,212.542 735.519,224.876 742.5,237.5C 744.288,239.791 746.288,241.957 748.5,244C 749.448,244.483 750.448,244.649 751.5,244.5C 752.238,239.19 752.905,233.857 753.5,228.5C 752.404,214.733 750.571,201.067 748,187.5C 744.325,176.838 740.158,166.505 735.5,156.5C 737.722,156.178 739.556,156.845 741,158.5C 754.073,174.987 762.573,193.654 766.5,214.5C 775.707,202.35 778.873,188.683 776,173.5C 774.857,170.223 774.023,166.89 773.5,163.5C 776.959,164.436 779.793,166.436 782,169.5C 789.412,182.979 791.412,197.312 788,212.5C 782.573,231.353 776.573,250.019 770,268.5C 768.333,276.5 766.667,284.5 765,292.5C 764.333,296.167 764.333,299.833 765,303.5C 765.347,305.18 766.347,306.18 768,306.5C 776.587,301.415 783.754,294.748 789.5,286.5C 803.061,264.033 808.061,239.7 804.5,213.5C 804.417,201.878 806.584,201.544 811,212.5C 823.17,245.109 820.503,276.442 803,306.5C 792.576,322.255 780.076,336.088 765.5,348C 736.488,366.63 705.488,381.297 672.5,392C 647.973,402.193 629.473,419.026 617,442.5C 615.892,446.086 615.392,449.753 615.5,453.5C 620.874,454.063 625.041,452.063 628,447.5C 639.756,421.409 659.59,405.243 687.5,399C 697.156,397.815 706.823,397.148 716.5,397C 719.508,428.978 708.508,454.978 683.5,475C 679.759,477.732 675.759,480.066 671.5,482C 660.286,485.092 648.952,487.759 637.5,490C 632.737,492.798 628.237,495.964 624,499.5C 620.272,506.1 619.439,513.1 621.5,520.5C 621.04,531.34 618.54,541.673 614,551.5C 603.017,570.486 588.517,586.32 570.5,599C 563.833,602.333 557.167,602.333 550.5,599C 547.423,596.593 544.09,594.593 540.5,593C 527.232,581.735 515.399,569.235 505,555.5C 501.784,549.736 499.117,543.736 497,537.5C 495.334,526.52 495.001,515.52 496,504.5C 493.46,502.295 491.293,499.795 489.5,497C 486.567,495.729 483.901,494.062 481.5,492C 468.371,488.801 455.371,485.134 442.5,481C 411.497,461.829 397.331,433.996 400,397.5C 423.099,395.566 444.265,401.066 463.5,414C 475.094,423.041 483.927,434.208 490,447.5C 493.515,452.6 498.181,454.6 504,453.5C 504.33,450.134 503.997,446.801 503,443.5C 490.107,419.806 471.274,402.639 446.5,392C 413.845,381.617 383.179,367.284 354.5,349C 339.67,337.501 326.837,324.001 316,308.5C 313.368,303.186 310.701,297.853 308,292.5C 304.861,284.413 302.528,276.08 301,267.5C 300.333,256.167 300.333,244.833 301,233.5C 302.734,225.301 305.067,217.301 308,209.5C 308.782,206.924 310.282,204.924 312.5,203.5C 313.946,204.171 314.612,205.338 314.5,207C 306.538,243.76 315.872,275.093 342.5,301C 345.029,303.029 347.696,304.862 350.5,306.5C 351.971,305.619 352.804,304.286 353,302.5C 353.168,291.672 351.835,281.006 349,270.5C 342.433,252.029 336.433,233.362 331,214.5C 327.876,199.2 329.542,184.534 336,170.5C 337.989,166.468 341.156,164.135 345.5,163.5C 342.691,173.978 341.857,184.644 343,195.5C 344.851,202.199 347.518,208.533 351,214.5C 354.492,201.565 358.826,188.898 364,176.5C 368.35,169.123 373.183,162.123 378.5,155.5 Z M 507.5,496.5 C 520.838,499.672 529.005,508.005 532,521.5C 532.287,523.891 532.787,526.224 533.5,528.5C 533.167,528.833 532.833,529.167 532.5,529.5C 530.205,528.568 527.871,527.735 525.5,527C 521.913,520.1 516.747,514.6 510,510.5C 507.896,506.078 507.063,501.412 507.5,496.5 Z M 604.5,496.5 C 606.144,496.286 607.644,496.62 609,497.5C 609.671,501.636 609.171,505.636 607.5,509.5C 603.792,513.21 599.792,516.543 595.5,519.5C 594.885,522.039 594.218,524.539 593.5,527C 590.382,527.873 587.382,529.039 584.5,530.5C 584.135,519.859 587.802,510.692 595.5,503C 598.567,500.812 601.567,498.645 604.5,496.5 Z M 554.5,520.5 C 558.215,520.196 561.715,520.863 565,522.5C 566.289,528.082 567.289,533.748 568,539.5C 571.421,548.609 574.921,557.609 578.5,566.5C 565.833,566.5 553.167,566.5 540.5,566.5C 545.513,552.946 549.013,538.946 551,524.5C 551.69,522.65 552.856,521.316 554.5,520.5 Z"/></g>
<g><path style="opacity:0.999" fill="#242424" d="M 375.5,162.5 C 376.043,162.56 376.376,162.893 376.5,163.5C 374.374,167.711 372.541,172.044 371,176.5C 370.667,176.167 370.333,175.833 370,175.5C 365.271,182.366 364.604,182.033 368,174.5C 370.261,170.304 372.761,166.304 375.5,162.5 Z"/></g>
<g><path style="opacity:1" fill="#242424" d="M 742.5,165.5 C 744.033,167.355 745.7,169.188 747.5,171C 747.167,171.333 746.833,171.667 746.5,172C 748.167,174.333 749.833,176.667 751.5,179C 749.432,178.983 747.766,177.983 746.5,176C 746.833,175.667 747.167,175.333 747.5,175C 745.171,172.174 743.504,169.008 742.5,165.5 Z"/></g>
<g><path style="opacity:1" fill="#242424" d="M 720.5,206.5 C 723.149,209.471 724.982,212.804 726,216.5C 722.134,214.285 720.301,210.951 720.5,206.5 Z"/></g>
<g><path style="opacity:1" fill="#242424" d="M 332.5,202.5 C 334.946,203.392 335.612,204.892 334.5,207C 335.167,207.333 335.833,207.667 336.5,208C 333.786,211.935 334.453,215.268 338.5,218C 338.459,221.203 337.959,224.703 337,228.5C 334.532,219.996 333.032,211.329 332.5,202.5 Z"/></g>
<g><path style="opacity:1" fill="#242424" d="M 734.5,238.5 C 737.302,241.476 739.969,244.642 742.5,248C 741.377,249.044 740.044,249.71 738.5,250C 739.833,251 739.833,252 738.5,253C 739.672,254.997 741.005,256.83 742.5,258.5C 742.263,261.063 741.763,261.063 741,258.5C 740.683,260.301 740.016,260.634 739,259.5C 737.579,256.304 736.079,253.471 734.5,251C 735.815,249.605 735.481,248.605 733.5,248C 734.727,246.413 734.394,245.079 732.5,244C 733.477,242.318 734.144,240.484 734.5,238.5 Z"/></g>
<g><path style="opacity:0.963" fill="#242424" d="M 496.5,563.5 C 498.129,564.625 499.629,565.959 501,567.5C 514.938,592.109 534.605,610.442 560,622.5C 584.485,610.35 603.485,592.35 617,568.5C 618.333,567.167 619.667,565.833 621,564.5C 624.242,594.132 631.575,622.799 643,650.5C 643.667,657.167 643.667,663.833 643,670.5C 640,676.5 637,682.5 634,688.5C 613.523,716.31 589.689,740.81 562.5,762C 559.697,762.755 557.03,762.422 554.5,761C 531.122,744.555 510.622,725.055 493,702.5C 490.385,698.217 487.385,694.217 484,690.5C 481.094,685.69 478.427,680.69 476,675.5C 474,666.833 474,658.167 476,649.5C 487.212,621.909 494.045,593.242 496.5,563.5 Z"/></g>
<g><path style="opacity:0.933" fill="#242424" d="M 350.5,781.5 C 361.172,781.333 371.839,781.5 382.5,782C 398.297,813.937 413.13,846.437 427,879.5C 436.001,898.191 445.001,916.858 454,935.5C 454.49,936.793 454.657,938.127 454.5,939.5C 442.528,939.188 430.528,939.021 418.5,939C 416.714,938.215 415.214,937.049 414,935.5C 412.303,929.774 409.803,924.441 406.5,919.5C 381.173,918.334 355.84,918.167 330.5,919C 327.95,926.101 324.616,932.767 320.5,939C 308.833,939.667 297.167,939.667 285.5,939C 284.692,938.692 284.025,938.192 283.5,937.5C 306.434,885.646 328.767,833.646 350.5,781.5 Z M 366.5,829.5 C 367.885,830.574 369.051,831.907 370,833.5C 376.107,848.384 382.774,863.051 390,877.5C 391.145,880.432 391.978,883.432 392.5,886.5C 375.83,886.667 359.163,886.5 342.5,886C 351.362,867.596 359.362,848.762 366.5,829.5 Z"/></g>
<g><path style="opacity:0.939" fill="#242424" d="M 463.5,781.5 C 474.415,781.18 485.248,781.513 496,782.5C 515.553,820.245 535.387,857.912 555.5,895.5C 574.036,858.427 592.536,821.427 611,784.5C 611.833,783.667 612.667,782.833 613.5,782C 624.828,781.5 636.162,781.333 647.5,781.5C 648.635,833.82 648.802,886.153 648,938.5C 642.412,939.156 636.745,939.489 631,939.5C 625.089,939.475 619.422,938.808 614,937.5C 614.144,909.528 613.81,881.528 613,853.5C 599.729,882.541 585.562,911.041 570.5,939C 561.5,939.667 552.5,939.667 543.5,939C 542.333,937.833 541.167,936.667 540,935.5C 525.51,909.191 511.51,882.524 498,855.5C 497.667,883.167 497.333,910.833 497,938.5C 486.197,939.825 475.363,939.825 464.5,938.5C 463.718,893.168 463.052,847.834 462.5,802.5C 462.517,795.423 462.851,788.423 463.5,781.5 Z"/></g>
<g><path style="opacity:0.933" fill="#242424" d="M 674.5,781.5 C 686.081,781.179 697.581,781.512 709,782.5C 709.333,805.5 709.667,828.5 710,851.5C 733.859,828.641 757.359,805.474 780.5,782C 793.988,781.021 807.321,781.354 820.5,783C 819.54,784.419 818.707,785.919 818,787.5C 804.279,801.221 790.613,814.887 777,828.5C 772.584,833.405 768.417,838.405 764.5,843.5C 785.739,874.97 806.739,906.637 827.5,938.5C 813.846,939.666 800.179,939.833 786.5,939C 770.636,917.358 755.136,895.525 740,873.5C 729.688,884.149 719.688,895.149 710,906.5C 709.667,917.167 709.333,927.833 709,938.5C 697.667,939.833 686.333,939.833 675,938.5C 673.181,886.172 673.015,833.838 674.5,781.5 Z"/></g>
</svg>
