<?xml version="1.0" encoding="UTF-8"?>
<!DOCTYPE svg PUBLIC "-//W3C//DTD SVG 1.1//EN" "http://www.w3.org/Graphics/SVG/1.1/DTD/svg11.dtd">
<svg xmlns="http://www.w3.org/2000/svg" version="1.1" width="547px" height="799px" style="shape-rendering:geometricPrecision; text-rendering:geometricPrecision; image-rendering:optimizeQuality; fill-rule:evenodd; clip-rule:evenodd" xmlns:xlink="http://www.w3.org/1999/xlink">
<g><path style="opacity:0.908" fill="#242424" d="M 95.5,4.5 C 96.5,4.5 97.5,4.5 98.5,4.5C 95.3276,14.1756 91.8276,23.8423 88,33.5C 84.1016,46.8904 81.9349,60.5571 81.5,74.5C 81.4125,80.9304 82.0791,87.2638 83.5,93.5C 84.8734,93.6567 86.2068,93.49 87.5,93C 89.5486,90.4066 91.7152,87.9066 94,85.5C 101.366,72.1467 108.7,58.8134 116,45.5C 117,44.1667 118,44.1667 119,45.5C 115.168,69.9982 107.501,93.3315 96,115.5C 85.3728,144.265 90.8728,169.432 112.5,191C 123.748,197.862 135.914,202.362 149,204.5C 150.397,203.774 151.231,202.607 151.5,201C 148.857,188.288 147.191,175.455 146.5,162.5C 146.584,141.371 151.75,121.704 162,103.5C 163.264,101.393 165.097,100.393 167.5,100.5C 155.47,139.727 159.636,177.06 180,212.5C 187.703,221.871 196.37,230.204 206,237.5C 207.528,232.643 208.361,227.643 208.5,222.5C 207.647,207.3 205.48,192.3 202,177.5C 200.539,154.56 206.706,134.06 220.5,116C 221.448,115.517 222.448,115.351 223.5,115.5C 213.345,146.473 214.511,177.14 227,207.5C 230.865,224.689 233.865,242.022 236,259.5C 237.471,263.581 239.138,267.581 241,271.5C 242.5,268.5 244,265.5 245.5,262.5C 246.325,261.614 247.325,261.281 248.5,261.5C 248.337,270.548 250.337,279.048 254.5,287C 268.833,287.667 283.167,287.667 297.5,287C 301.927,278.798 304.26,269.964 304.5,260.5C 305.748,261.04 306.915,261.707 308,262.5C 309.34,265.202 310.673,267.869 312,270.5C 314.562,265.376 316.562,260.043 318,254.5C 319.08,230.431 323.747,207.098 332,184.5C 335.181,165.814 335.181,147.147 332,128.5C 329.922,123.925 328.089,119.258 326.5,114.5C 327.93,114.421 329.264,114.754 330.5,115.5C 345.791,135.16 351.958,157.493 349,182.5C 345.216,199.651 343.883,216.984 345,234.5C 345.419,235.672 346.085,236.672 347,237.5C 372.734,218.051 387.068,192.051 390,159.5C 390.963,144.425 390.296,129.425 388,114.5C 386.441,110.381 384.607,106.381 382.5,102.5C 382.833,101.5 383.5,100.833 384.5,100.5C 387.55,103.567 390.384,106.901 393,110.5C 401.376,127.447 405.543,145.447 405.5,164.5C 404.312,177.586 402.812,190.586 401,203.5C 433.289,202.557 452.955,186.224 460,154.5C 462.361,142.338 461.695,130.338 458,118.5C 446.251,96.0916 437.751,72.4249 432.5,47.5C 434.39,47.2965 435.89,47.9632 437,49.5C 445.019,61.5422 452.519,73.8755 459.5,86.5C 461.288,88.7908 463.288,90.9575 465.5,93C 466.448,93.4828 467.448,93.6495 468.5,93.5C 469.238,88.1899 469.905,82.8565 470.5,77.5C 469.404,63.7332 467.571,50.0666 465,36.5C 461.325,25.8384 457.158,15.5051 452.5,5.5C 454.722,5.17798 456.556,5.84464 458,7.5C 471.073,23.9871 479.573,42.6538 483.5,63.5C 492.707,51.3497 495.873,37.683 493,22.5C 491.857,19.2231 491.023,15.8898 490.5,12.5C 493.959,13.436 496.793,15.436 499,18.5C 506.412,31.9786 508.412,46.3119 505,61.5C 499.573,80.3526 493.573,99.0193 487,117.5C 485.333,125.5 483.667,133.5 482,141.5C 481.333,145.167 481.333,148.833 482,152.5C 482.347,154.18 483.347,155.18 485,155.5C 493.587,150.415 500.754,143.748 506.5,135.5C 520.061,113.033 525.061,88.6999 521.5,62.5C 521.417,50.8778 523.584,50.5445 528,61.5C 540.17,94.1088 537.503,125.442 520,155.5C 509.576,171.255 497.076,185.088 482.5,197C 453.488,215.63 422.488,230.297 389.5,241C 364.973,251.193 346.473,268.026 334,291.5C 332.892,295.086 332.392,298.753 332.5,302.5C 337.874,303.063 342.041,301.063 345,296.5C 356.756,270.409 376.59,254.243 404.5,248C 414.156,246.815 423.823,246.148 433.5,246C 436.508,277.978 425.508,303.978 400.5,324C 396.759,326.732 392.759,329.066 388.5,331C 377.286,334.092 365.952,336.759 354.5,339C 349.737,341.798 345.237,344.964 341,348.5C 337.272,355.1 336.439,362.1 338.5,369.5C 338.04,380.34 335.54,390.673 331,400.5C 320.017,419.486 305.517,435.32 287.5,448C 280.833,451.333 274.167,451.333 267.5,448C 264.423,445.593 261.09,443.593 257.5,442C 244.232,430.735 232.399,418.235 222,404.5C 218.784,398.736 216.117,392.736 214,386.5C 212.334,375.52 212.001,364.52 213,353.5C 210.46,351.295 208.293,348.795 206.5,346C 203.567,344.729 200.901,343.062 198.5,341C 185.371,337.801 172.371,334.134 159.5,330C 128.497,310.829 114.331,282.996 117,246.5C 140.099,244.566 161.265,250.066 180.5,263C 192.094,272.041 200.927,283.208 207,296.5C 210.515,301.6 215.181,303.6 221,302.5C 221.33,299.134 220.997,295.801 220,292.5C 207.107,268.806 188.274,251.639 163.5,241C 130.845,230.617 100.179,216.284 71.5,198C 56.67,186.501 43.8367,173.001 33,157.5C 30.3678,152.186 27.7011,146.853 25,141.5C 21.8609,133.413 19.5275,125.08 18,116.5C 17.3333,105.167 17.3333,93.8333 18,82.5C 19.7338,74.3012 22.0672,66.3012 25,58.5C 25.7822,55.9242 27.2822,53.9242 29.5,52.5C 30.9458,53.1709 31.6125,54.3376 31.5,56C 23.5385,92.7595 32.8718,124.093 59.5,150C 62.0292,152.029 64.6959,153.862 67.5,155.5C 68.9705,154.619 69.8038,153.286 70,151.5C 70.168,140.672 68.8346,130.006 66,119.5C 59.4334,101.029 53.4334,82.3624 48,63.5C 44.8758,48.2005 46.5424,33.5338 53,19.5C 54.9891,15.4685 58.1558,13.1352 62.5,12.5C 59.6905,22.9777 58.8572,33.6444 60,44.5C 61.8511,51.1992 64.5177,57.5325 68,63.5C 71.4922,50.5648 75.8255,37.8981 81,25.5C 85.3497,18.1228 90.183,11.1228 95.5,4.5 Z M 224.5,345.5 C 237.838,348.672 246.005,357.005 249,370.5C 249.287,372.891 249.787,375.224 250.5,377.5C 250.167,377.833 249.833,378.167 249.5,378.5C 247.205,377.568 244.871,376.735 242.5,376C 238.913,369.1 233.747,363.6 227,359.5C 224.896,355.078 224.063,350.412 224.5,345.5 Z M 321.5,345.5 C 323.144,345.286 324.644,345.62 326,346.5C 326.671,350.636 326.171,354.636 324.5,358.5C 320.792,362.21 316.792,365.543 312.5,368.5C 311.885,371.039 311.218,373.539 310.5,376C 307.382,376.873 304.382,378.039 301.5,379.5C 301.135,368.859 304.802,359.692 312.5,352C 315.567,349.812 318.567,347.645 321.5,345.5 Z M 271.5,369.5 C 275.215,369.196 278.715,369.863 282,371.5C 283.289,377.082 284.289,382.748 285,388.5C 288.421,397.609 291.921,406.609 295.5,415.5C 282.833,415.5 270.167,415.5 257.5,415.5C 262.513,401.946 266.013,387.946 268,373.5C 268.69,371.65 269.856,370.316 271.5,369.5 Z"/></g>
<g><path style="opacity:0.999" fill="#242424" d="M 92.5,11.5 C 93.0431,11.56 93.3764,11.8933 93.5,12.5C 91.3742,16.7109 89.5409,21.0442 88,25.5C 87.6667,25.1667 87.3333,24.8333 87,24.5C 82.2708,31.3663 81.6041,31.0329 85,23.5C 87.2606,19.3037 89.7606,15.3037 92.5,11.5 Z"/></g>
<g><path style="opacity:1" fill="#242424" d="M 459.5,14.5 C 461.033,16.3548 462.7,18.1881 464.5,20C 464.167,20.3333 463.833,20.6667 463.5,21C 465.167,23.3333 466.833,25.6667 468.5,28C 466.432,27.9827 464.766,26.9827 463.5,25C 463.833,24.6667 464.167,24.3333 464.5,24C 462.171,21.1745 460.504,18.0078 459.5,14.5 Z"/></g>
<g><path style="opacity:1" fill="#242424" d="M 437.5,55.5 C 440.149,58.4708 441.982,61.8042 443,65.5C 439.134,63.2846 437.301,59.9513 437.5,55.5 Z"/></g>
<g><path style="opacity:1" fill="#242424" d="M 49.5,51.5 C 51.9457,52.3921 52.6123,53.8921 51.5,56C 52.1667,56.3333 52.8333,56.6667 53.5,57C 50.7862,60.9347 51.4529,64.2681 55.5,67C 55.4592,70.2032 54.9592,73.7032 54,77.5C 51.5324,68.9961 50.0324,60.3294 49.5,51.5 Z"/></g>
<g><path style="opacity:1" fill="#242424" d="M 451.5,87.5 C 454.302,90.4758 456.969,93.6425 459.5,97C 458.377,98.0437 457.044,98.7104 455.5,99C 456.833,100 456.833,101 455.5,102C 456.672,103.997 458.005,105.83 459.5,107.5C 459.263,110.063 458.763,110.063 458,107.5C 457.683,109.301 457.016,109.634 456,108.5C 454.579,105.304 453.079,102.471 451.5,100C 452.815,98.6054 452.481,97.6054 450.5,97C 451.727,95.4126 451.394,94.0793 449.5,93C 450.477,91.3177 451.144,89.4844 451.5,87.5 Z"/></g>
<g><path style="opacity:0.963" fill="#242424" d="M 213.5,412.5 C 215.129,413.625 216.629,414.959 218,416.5C 231.938,441.109 251.605,459.442 277,471.5C 301.485,459.35 320.485,441.35 334,417.5C 335.333,416.167 336.667,414.833 338,413.5C 341.242,443.132 348.575,471.799 360,499.5C 360.667,506.167 360.667,512.833 360,519.5C 357,525.5 354,531.5 351,537.5C 330.523,565.31 306.689,589.81 279.5,611C 276.697,611.755 274.03,611.422 271.5,610C 248.122,593.555 227.622,574.055 210,551.5C 207.385,547.217 204.385,543.217 201,539.5C 198.094,534.69 195.427,529.69 193,524.5C 191,515.833 191,507.167 193,498.5C 204.212,470.909 211.045,442.242 213.5,412.5 Z"/></g>
<g><path style="opacity:0.933" fill="#242424" d="M 67.5,630.5 C 78.1719,630.333 88.8385,630.5 99.5,631C 115.297,662.937 130.13,695.437 144,728.5C 153.001,747.191 162.001,765.858 171,784.5C 171.49,785.793 171.657,787.127 171.5,788.5C 159.528,788.188 147.528,788.021 135.5,788C 133.714,787.215 132.214,786.049 131,784.5C 129.303,778.774 126.803,773.441 123.5,768.5C 98.1732,767.334 72.8399,767.167 47.5,768C 44.9497,775.101 41.6164,781.767 37.5,788C 25.8333,788.667 14.1667,788.667 2.5,788C 1.69194,787.692 1.02527,787.192 0.5,786.5C 23.4338,734.646 45.7671,682.646 67.5,630.5 Z M 83.5,678.5 C 84.8846,679.574 86.0513,680.907 87,682.5C 93.1075,697.384 99.7741,712.051 107,726.5C 108.145,729.432 108.978,732.432 109.5,735.5C 92.83,735.667 76.1633,735.5 59.5,735C 68.3619,716.596 76.3619,697.762 83.5,678.5 Z"/></g>
<g><path style="opacity:0.939" fill="#242424" d="M 180.5,630.5 C 191.415,630.18 202.248,630.513 213,631.5C 232.553,669.245 252.387,706.912 272.5,744.5C 291.036,707.427 309.536,670.427 328,633.5C 328.833,632.667 329.667,631.833 330.5,631C 341.828,630.5 353.162,630.333 364.5,630.5C 365.635,682.82 365.802,735.153 365,787.5C 359.412,788.156 353.745,788.489 348,788.5C 342.089,788.475 336.422,787.808 331,786.5C 331.144,758.528 330.81,730.528 330,702.5C 316.729,731.541 302.562,760.041 287.5,788C 278.5,788.667 269.5,788.667 260.5,788C 259.333,786.833 258.167,785.667 257,784.5C 242.51,758.191 228.51,731.524 215,704.5C 214.667,732.167 214.333,759.833 214,787.5C 203.197,788.825 192.363,788.825 181.5,787.5C 180.718,742.168 180.052,696.834 179.5,651.5C 179.517,644.423 179.851,637.423 180.5,630.5 Z"/></g>
<g><path style="opacity:0.933" fill="#242424" d="M 391.5,630.5 C 403.081,630.179 414.581,630.512 426,631.5C 426.333,654.5 426.667,677.5 427,700.5C 450.859,677.641 474.359,654.474 497.5,631C 510.988,630.021 524.321,630.354 537.5,632C 536.54,633.419 535.707,634.919 535,636.5C 521.279,650.221 507.613,663.887 494,677.5C 489.584,682.405 485.417,687.405 481.5,692.5C 502.739,723.97 523.739,755.637 544.5,787.5C 530.846,788.666 517.179,788.833 503.5,788C 487.636,766.358 472.136,744.525 457,722.5C 446.688,733.149 436.688,744.149 427,755.5C 426.667,766.167 426.333,776.833 426,787.5C 414.667,788.833 403.333,788.833 392,787.5C 390.181,735.172 390.015,682.838 391.5,630.5 Z"/></g>
</svg>
